Coordinates
version=1
nRows=38
nColumns=12
inDegrees=yes

Units are S.I. units (second, meters, Newtons, ...)
Angles are in degrees

endheader
time	SC_y	SC_z	SC_x	AC_y	AC_z	AC_x	GH_y	GH_z	GH_yy	EL_x	PS_y
       0.0              -54.78          16.71          39.48          60.22         -19.85         -8.003          157.2          20.35         -28.97          127.5          75.81
   0.04197              -54.77          16.71          39.48          60.22         -19.85         -8.004          157.2          20.35         -28.94          127.5          75.82
   0.08395              -54.77          16.71          39.49          60.22         -19.85         -8.005          157.1          20.35         -28.91          127.5          75.83
    0.1259              -54.76          16.71          39.49          60.22         -19.84         -8.006          157.1          20.35         -28.88          127.5          75.84
    0.1679              -54.75          16.71           39.5          60.22         -19.84         -8.007          157.0          20.35         -28.85          127.5          75.85
    0.2099              -54.75          16.71          39.51          60.21         -19.84         -8.009          157.0          20.35         -28.82          127.5          75.86
    0.2518              -54.74          16.71          39.51          60.21         -19.84          -8.01          156.9          20.35         -28.78          127.5          75.87
    0.2938              -54.73          16.71          39.52          60.21         -19.83         -8.012          156.9          20.35         -28.74          127.5          75.88
    0.3358              -54.72          16.71          39.53           60.2         -19.83         -8.013          156.8          20.35         -28.69          127.5          75.89
    0.3778              -54.71          16.71          39.53           60.2         -19.82         -8.015          156.7          20.35         -28.65          127.5          75.91
    0.4197               -54.7          16.71          39.54           60.2         -19.82         -8.017          156.6          20.35          -28.6          127.5          75.92
    0.4617              -54.69          16.71          39.55          60.19         -19.82         -8.019          156.5          20.35         -28.54          127.4          75.94
    0.5037              -54.68          16.71          39.56          60.19         -19.81         -8.021          156.5          20.35         -28.49          127.4          75.95
    0.5456              -54.67          16.71          39.57          60.18         -19.81         -8.024          156.4          20.35         -28.42          127.4          75.97
    0.5876              -54.65          16.71          39.58          60.18          -19.8         -8.026          156.3          20.35         -28.36          127.4          75.99
    0.6296              -54.64          16.71          39.59          60.17         -19.79         -8.029          156.1          20.35         -28.28          127.4          76.01
    0.6716              -54.62          16.71          39.61          60.17         -19.79         -8.032          156.0          20.35          -28.2          127.4          76.04
    0.7135              -54.61          16.71          39.62          60.16         -19.78         -8.036          155.9          20.35         -28.12          127.4          76.06
    0.7555              -54.59          16.72          39.64          60.16         -19.77         -8.039          155.7          20.35         -28.02          127.4          76.09
    0.7975              -54.57          16.72          39.66          60.15         -19.76         -8.044          155.6          20.35         -27.92          127.3          76.12
    0.8395              -54.54          16.72          39.67          60.14         -19.75         -8.048          155.4          20.35          -27.8          127.3          76.15
    0.8814              -54.52          16.72           39.7          60.13         -19.74         -8.053          155.2          20.35         -27.68          127.3          76.19
    0.9234              -54.49          16.72          39.72          60.12         -19.73         -8.058          154.9          20.35         -27.54          127.3          76.23
    0.9654              -54.46          16.72          39.74          60.11         -19.72         -8.064          154.7          20.35         -27.39          127.3          76.28
     1.007              -54.43          16.72          39.77           60.1          -19.7         -8.071          154.4          20.35         -27.22          127.2          76.33
     1.049              -54.39          16.72           39.8          60.08         -19.69         -8.078          154.1          20.35         -27.03          127.2          76.38
     1.091              -54.34          16.72          39.84          60.07         -19.67         -8.086          153.8          20.35         -26.81          127.2          76.44
     1.133               -54.3          16.72          39.88          60.05         -19.65         -8.096          153.4          20.35         -26.57          127.1          76.51
     1.175              -54.24          16.72          39.92          60.03         -19.63         -8.106          153.0          20.36          -26.3          127.1          76.59
     1.217              -54.18          16.73          39.98          60.01          -19.6         -8.118          152.5          20.36          -26.0          127.1          76.68
     1.259              -54.11          16.73          40.03          59.98         -19.57         -8.132          151.9          20.36         -25.64          127.0          76.79
     1.301              -54.03          16.73           40.1          59.95         -19.53         -8.148          151.3          20.36         -25.24          126.9          76.91
     1.343              -53.94          16.73          40.18          59.92          -19.5         -8.166          150.5          20.36         -24.78          126.9          77.04
     1.385              -53.83          16.74          40.27          59.88         -19.45         -8.187          149.7          20.36         -24.24          126.8           77.2
     1.427               -53.7          16.74          40.38          59.83          -19.4         -8.211          148.7          20.36          -23.6          126.7          77.39
     1.469              -53.55          16.74           40.5          59.78         -19.33          -8.24          147.5          20.36         -22.86          126.6          77.61
     1.511              -53.37          16.75          40.65          59.71         -19.26         -8.275          146.1          20.36         -21.97          126.4          77.87
     1.553              -53.16          16.76          40.83          59.64         -19.17         -8.316          144.4          20.37         -20.91          126.3          78.18
